# xmcd
#
# Track frame offsets:
#	150
#	65741
#	85983
#	104060
#	125912
#	143048
#	201831
#	210482
#
# Disc length: 3570 seconds
#
# Revision: 1
# Processed by: cddbd v1.5.2PL0 Copyright (c) Steve Scherf et al.
# Submitted via: audiograbber 1.83.01
#
DISCID=7f0df008
DTITLE=Grateful Dead - 69-11-01 Family Dog at the Great Highway, San Francisco 
DTITLE=CA
DYEAR=1900
DGENRE=
TTITLE0=He Was A Friend Of Mine
TTITLE1=China Cat Sunflower
TTITLE2=I Know You Rider
TTITLE3=Casey Jones
TTITLE4=Alligator
TTITLE5=Jam
TTITLE6=Uncle John's Band
TTITLE7=Turn On Your Lovelight
EXTD=
EXTT0=
EXTT1=
EXTT2=
EXTT3=
EXTT4=
EXTT5=
EXTT6=
EXTT7=
PLAYORDER=
